<svg id="svg" version="1.1" xmlns="http://www.w3.org/2000/svg" xmlns:xlink="http://www.w3.org/1999/xlink" width="400" height="400" viewBox="0, 0, 400,400"><g id="svgg"><path id="path0" d="M281.008 55.039 C 279.149 55.719,276.800 57.850,276.800 58.855 C 276.800 59.239,276.620 59.664,276.400 59.800 C 276.135 59.964,276.000 107.130,276.000 200.000 C 276.000 292.870,276.135 340.036,276.400 340.200 C 276.620 340.336,276.800 340.761,276.800 341.145 C 276.800 342.193,279.172 344.285,281.152 344.983 C 283.558 345.832,391.501 345.917,394.326 345.072 C 396.492 344.424,399.200 341.950,399.200 340.619 C 399.200 340.084,399.380 339.536,399.600 339.400 C 399.865 339.236,400.000 292.337,400.000 200.000 C 400.000 107.663,399.865 60.764,399.600 60.600 C 399.380 60.464,399.200 59.916,399.200 59.381 C 399.200 58.050,396.492 55.576,394.326 54.928 C 391.602 54.114,283.246 54.220,281.008 55.039 M385.400 200.000 L 385.400 331.000 337.900 331.102 L 290.400 331.203 290.400 200.000 L 290.400 68.797 337.900 68.898 L 385.400 69.000 385.400 200.000 M300.000 102.200 L 300.000 114.400 337.600 114.400 L 375.200 114.400 375.200 102.200 L 375.200 90.000 337.600 90.000 L 300.000 90.000 300.000 102.200 M15.197 90.789 C 9.672 91.503,2.471 96.408,2.410 99.500 C 2.404 99.775,2.220 100.000,2.000 100.000 C 1.780 100.000,1.600 100.360,1.600 100.800 C 1.600 101.240,1.420 101.600,1.200 101.600 C 0.980 101.600,0.800 102.399,0.800 103.376 C 0.800 104.353,0.620 105.264,0.400 105.400 C -0.154 105.742,-0.154 265.458,0.400 265.800 C 0.620 265.936,0.800 266.847,0.800 267.824 C 0.800 268.801,0.980 269.600,1.200 269.600 C 1.420 269.600,1.600 269.880,1.600 270.222 C 1.600 272.215,6.500 277.456,9.794 278.986 C 13.182 280.560,13.338 280.566,58.200 280.785 L 102.200 281.000 102.314 285.300 C 102.387 288.067,102.280 289.600,102.014 289.600 C 101.771 289.600,101.600 290.677,101.600 292.200 C 101.600 293.667,101.426 294.800,101.200 294.800 C 100.980 294.800,100.800 295.419,100.800 296.176 C 100.800 296.933,100.620 297.664,100.400 297.800 C 100.180 297.936,100.000 298.399,100.000 298.829 C 100.000 299.259,99.840 299.923,99.644 300.305 C 99.448 300.687,98.863 301.900,98.344 303.000 C 97.825 304.100,97.265 305.060,97.100 305.133 C 96.935 305.207,96.800 305.503,96.800 305.792 C 96.800 307.597,87.923 314.400,85.567 314.400 C 85.171 314.400,84.748 314.561,84.626 314.758 C 84.505 314.955,83.639 315.229,82.703 315.367 C 81.766 315.505,80.100 315.749,79.000 315.909 L 77.000 316.200 76.892 324.102 L 76.783 332.003 127.492 331.902 L 178.200 331.800 178.200 324.000 L 178.200 316.200 176.000 315.928 C 171.248 315.341,167.064 314.118,165.138 312.753 C 164.554 312.339,163.910 312.000,163.707 312.000 C 163.504 312.000,162.082 310.744,160.547 309.209 C 156.862 305.524,155.020 301.941,153.245 295.000 C 152.656 292.698,152.309 286.054,152.629 283.223 L 152.903 280.800 195.952 280.786 C 242.670 280.770,241.269 280.833,245.827 278.541 C 249.300 276.794,253.600 271.377,253.600 268.749 C 253.600 268.363,253.780 267.936,254.000 267.800 C 254.265 267.636,254.400 239.804,254.400 185.600 C 254.400 131.396,254.265 103.564,254.000 103.400 C 253.780 103.264,253.600 102.834,253.600 102.444 C 253.600 97.760,246.488 91.744,239.871 90.832 C 236.316 90.341,18.984 90.300,15.197 90.789 M236.703 174.300 L 236.807 240.800 127.203 240.800 L 17.600 240.800 17.600 174.433 C 17.600 121.714,17.703 108.025,18.100 107.865 C 18.375 107.753,67.650 107.693,127.600 107.731 L 236.600 107.800 236.703 174.300 M300.088 129.100 L 300.200 134.200 337.600 134.200 L 375.000 134.200 375.112 129.100 L 375.224 124.000 337.600 124.000 L 299.976 124.000 300.088 129.100 M300.000 148.400 L 300.000 153.600 337.600 153.600 L 375.200 153.600 375.200 148.400 L 375.200 143.200 337.600 143.200 L 300.000 143.200 300.000 148.400 M300.175 162.921 C 300.064 163.210,300.024 165.596,300.087 168.223 L 300.200 173.000 337.600 173.000 L 375.000 173.000 375.000 167.800 L 375.000 162.600 337.688 162.498 C 307.176 162.414,300.340 162.492,300.175 162.921 M333.285 226.180 C 325.518 228.061,318.584 234.549,316.485 241.900 C 316.218 242.835,315.806 244.277,315.568 245.103 C 314.913 247.381,315.364 253.931,316.358 256.600 C 321.708 270.952,336.209 276.999,349.862 270.573 C 352.660 269.255,359.185 263.447,359.209 262.253 C 359.214 262.004,359.570 261.350,360.000 260.800 C 360.430 260.250,360.786 259.485,360.791 259.100 C 360.796 258.715,360.980 258.400,361.200 258.400 C 361.420 258.400,361.600 257.961,361.600 257.424 C 361.600 256.887,361.780 256.336,362.000 256.200 C 362.220 256.064,362.400 255.344,362.400 254.600 C 362.400 253.856,362.580 253.136,362.800 253.000 C 363.020 252.864,363.200 251.244,363.200 249.400 C 363.200 247.556,363.020 245.936,362.800 245.800 C 362.580 245.664,362.400 244.854,362.400 244.000 C 362.400 243.146,362.220 242.336,362.000 242.200 C 361.780 242.064,361.600 241.528,361.600 241.010 C 361.600 240.491,361.465 240.007,361.300 239.933 C 361.135 239.860,360.550 238.903,360.000 237.806 C 355.555 228.940,343.518 223.703,333.285 226.180 M343.400 234.000 C 343.536 234.220,343.980 234.400,344.386 234.400 C 350.535 234.400,356.998 246.112,354.744 253.172 C 353.582 256.810,349.671 262.382,348.260 262.409 C 348.007 262.414,347.350 262.770,346.800 263.200 C 346.250 263.630,345.395 263.986,344.900 263.991 C 344.405 263.996,344.000 264.164,344.000 264.365 C 344.000 264.787,334.904 264.824,334.002 264.406 C 328.099 261.668,325.876 259.408,323.651 253.881 C 323.111 252.542,323.048 245.878,323.565 244.895 C 323.766 244.513,324.388 243.210,324.947 242.000 C 326.560 238.507,331.489 234.400,334.068 234.400 C 334.471 234.400,334.800 234.220,334.800 234.000 C 334.800 233.759,336.459 233.600,338.976 233.600 C 341.329 233.600,343.261 233.775,343.400 234.000 M131.766 245.374 C 135.994 246.476,140.507 249.800,141.846 252.800 C 143.424 256.333,143.710 257.468,143.710 260.200 C 143.710 262.915,143.348 264.368,141.900 267.472 C 141.265 268.832,137.670 272.797,137.060 272.809 C 136.807 272.814,136.150 273.170,135.600 273.600 C 135.050 274.030,134.206 274.386,133.724 274.391 C 133.242 274.396,132.736 274.580,132.600 274.800 C 132.464 275.021,130.670 275.200,128.600 275.200 C 126.530 275.200,124.736 275.021,124.600 274.800 C 124.464 274.580,124.024 274.400,123.622 274.400 C 122.712 274.400,121.456 273.747,119.396 272.204 C 116.716 270.196,116.113 269.356,113.910 264.553 C 113.070 262.722,113.704 255.986,114.941 253.600 C 118.245 247.225,125.414 243.720,131.766 245.374 M126.952 252.016 C 122.632 252.602,119.559 257.375,120.524 262.000 C 122.632 272.105,136.979 270.661,137.160 260.326 C 137.260 254.603,133.065 251.188,126.952 252.016 " stroke="none" fill="#040404" fill-rule="evenodd"></path><path id="path1" d="M278.877 54.033 C 277.120 55.064,275.600 56.617,275.600 57.382 C 275.600 57.722,275.420 58.000,275.200 58.000 C 274.934 58.000,274.800 105.600,274.800 200.000 C 274.800 294.400,274.934 342.000,275.200 342.000 C 275.420 342.000,275.600 342.291,275.600 342.646 C 275.600 343.393,278.303 346.000,279.078 346.000 C 279.365 346.000,279.600 346.180,279.600 346.400 C 279.600 346.665,299.200 346.800,337.600 346.800 C 376.000 346.800,395.600 346.665,395.600 346.400 C 395.600 346.180,395.884 346.000,396.231 346.000 C 397.438 346.000,400.006 342.862,399.940 341.467 C 399.889 340.380,399.855 340.342,399.705 341.200 C 399.407 342.903,395.855 345.513,393.446 345.798 C 392.321 345.931,366.442 345.986,335.937 345.920 L 280.474 345.800 278.937 344.577 C 278.092 343.904,276.995 342.561,276.500 341.592 L 275.600 339.830 275.607 199.815 L 275.613 59.800 276.507 58.238 C 276.998 57.379,278.092 56.119,278.937 55.438 L 280.474 54.200 335.937 54.080 C 366.442 54.014,392.321 54.069,393.446 54.202 C 395.855 54.487,399.407 57.097,399.705 58.800 C 399.855 59.658,399.889 59.620,399.940 58.533 C 400.006 57.138,397.438 54.000,396.231 54.000 C 395.884 54.000,395.600 53.820,395.600 53.600 C 395.600 52.717,280.392 53.144,278.877 54.033 M290.800 200.000 L 290.800 330.800 337.800 330.800 L 384.800 330.800 384.800 200.000 L 384.800 69.200 337.800 69.200 L 290.800 69.200 290.800 200.000 M383.600 200.000 L 383.600 330.000 337.803 330.000 L 292.007 330.000 292.015 200.381 C 292.020 129.091,291.918 70.591,291.788 70.381 C 291.640 70.140,308.522 70.000,337.576 70.000 L 383.600 70.000 383.600 200.000 M299.067 88.667 C 298.476 89.257,298.767 115.225,299.371 115.829 C 299.859 116.316,305.573 116.400,338.171 116.400 L 376.400 116.400 376.400 115.400 C 376.400 114.346,376.028 114.132,375.358 114.802 C 375.093 115.067,362.162 115.169,337.378 115.102 L 299.800 115.000 299.694 102.309 L 299.589 89.618 300.494 89.398 C 301.983 89.036,374.941 89.371,375.700 89.743 C 376.254 90.014,376.400 89.909,376.400 89.243 L 376.400 88.400 337.867 88.400 C 316.673 88.400,299.213 88.520,299.067 88.667 M12.400 89.600 C 12.400 89.820,11.860 90.000,11.200 90.000 C 10.540 90.000,10.000 90.180,10.000 90.400 C 10.000 90.620,9.640 90.800,9.200 90.800 C 8.760 90.800,8.400 90.980,8.400 91.200 C 8.400 91.420,8.133 91.600,7.807 91.600 C 7.276 91.600,5.957 92.600,4.060 94.440 C 1.719 96.710,0.438 99.157,0.255 101.708 C 0.172 102.858,0.182 103.215,0.276 102.500 C 0.371 101.785,0.617 101.200,0.824 101.200 C 1.031 101.200,1.200 100.750,1.200 100.200 C 1.200 99.650,1.350 99.200,1.532 99.200 C 1.715 99.200,2.118 98.728,2.427 98.150 C 3.059 96.968,7.520 92.400,8.042 92.400 C 8.228 92.400,8.970 92.041,9.690 91.601 C 10.411 91.162,11.315 90.802,11.700 90.801 C 12.085 90.801,12.400 90.622,12.400 90.404 C 12.400 89.693,242.333 89.875,243.044 90.587 C 243.363 90.906,243.888 91.064,244.212 90.940 C 244.535 90.816,244.800 90.870,244.800 91.060 C 244.800 91.249,245.385 91.662,246.100 91.976 C 249.188 93.335,252.951 98.137,254.231 102.353 C 255.297 105.866,255.050 266.304,253.974 269.492 C 252.352 274.293,248.688 278.191,244.000 280.103 L 241.800 281.000 197.616 281.200 L 153.433 281.400 153.107 282.800 C 152.622 284.882,153.132 292.126,154.037 296.000 C 156.674 307.296,163.580 313.680,174.800 315.197 C 176.670 315.450,178.371 315.824,178.580 316.028 C 179.274 316.707,179.655 316.414,179.527 315.300 C 179.401 314.207,179.378 314.199,176.002 314.082 C 174.133 314.017,172.432 313.792,172.222 313.582 C 172.012 313.372,171.246 313.200,170.520 313.200 C 169.794 313.200,169.200 313.020,169.200 312.800 C 169.200 312.580,168.840 312.400,168.400 312.400 C 167.960 312.400,167.600 312.220,167.600 312.000 C 167.600 311.780,167.240 311.600,166.800 311.600 C 166.360 311.600,166.000 311.420,166.000 311.200 C 166.000 310.980,165.706 310.800,165.347 310.800 C 164.988 310.800,164.403 310.484,164.047 310.097 C 163.691 309.711,162.940 309.159,162.379 308.872 C 161.817 308.584,160.919 307.640,160.384 306.775 C 159.849 305.909,159.274 305.200,159.106 305.200 C 158.938 305.200,158.800 304.964,158.800 304.675 C 158.800 304.387,158.440 303.764,158.000 303.292 C 157.560 302.820,157.200 302.077,157.200 301.640 C 157.200 301.204,157.020 300.736,156.800 300.600 C 156.580 300.464,156.400 300.003,156.400 299.576 C 156.400 299.149,156.220 298.800,156.000 298.800 C 155.780 298.800,155.600 298.080,155.600 297.200 C 155.600 296.320,155.420 295.600,155.200 295.600 C 154.980 295.600,154.800 294.700,154.800 293.600 C 154.800 292.500,154.620 291.600,154.400 291.600 C 154.156 291.600,154.000 289.733,154.000 286.800 L 154.000 282.000 198.400 282.000 C 227.733 282.000,242.800 281.864,242.800 281.600 C 242.800 281.380,243.340 281.200,244.000 281.200 C 244.660 281.200,245.200 281.020,245.200 280.800 C 245.200 280.580,245.560 280.400,246.000 280.400 C 246.440 280.400,246.800 280.220,246.800 280.000 C 246.800 279.780,247.073 279.600,247.407 279.600 C 248.199 279.600,253.200 274.599,253.200 273.807 C 253.200 273.473,253.335 273.199,253.500 273.197 C 253.859 273.193,254.800 271.256,254.800 270.520 C 254.800 270.234,254.980 270.000,255.200 270.000 C 255.420 270.000,255.600 269.291,255.600 268.424 C 255.600 267.557,255.780 266.736,256.000 266.600 C 256.554 266.258,256.554 105.342,256.000 105.000 C 255.780 104.864,255.600 103.953,255.600 102.976 C 255.600 101.999,255.420 101.200,255.200 101.200 C 254.980 101.200,254.800 100.840,254.800 100.400 C 254.800 99.960,254.620 99.600,254.400 99.600 C 254.180 99.600,254.000 99.240,254.000 98.800 C 254.000 98.360,253.820 98.000,253.600 98.000 C 253.380 98.000,253.200 97.716,253.200 97.369 C 253.200 96.603,248.130 91.600,247.354 91.600 C 247.049 91.600,246.800 91.420,246.800 91.200 C 246.800 90.980,246.440 90.800,246.000 90.800 C 245.560 90.800,245.200 90.620,245.200 90.400 C 245.200 90.180,244.671 90.000,244.024 90.000 C 243.377 90.000,242.736 89.820,242.600 89.600 C 242.436 89.335,203.596 89.200,127.376 89.200 C 50.992 89.200,12.400 89.334,12.400 89.600 M18.413 108.776 C 18.130 109.305,18.030 130.302,18.099 174.876 L 18.200 240.200 127.300 240.301 L 236.400 240.401 236.400 174.201 L 236.400 108.000 127.614 108.000 C 20.362 108.000,18.822 108.011,18.413 108.776 M235.600 174.400 L 235.600 239.600 127.600 239.600 L 19.600 239.600 19.600 174.400 L 19.600 109.200 127.600 109.200 L 235.600 109.200 235.600 174.400 M299.067 122.267 C 298.920 122.413,298.800 125.473,298.800 129.067 L 298.800 135.600 336.680 135.600 C 361.800 135.600,374.426 135.466,374.162 135.202 C 373.905 134.945,360.635 134.768,336.782 134.702 L 299.800 134.600 299.800 129.000 L 299.800 123.400 338.100 123.400 C 374.310 123.400,376.400 123.362,376.400 122.700 C 376.400 121.980,299.783 121.551,299.067 122.267 M375.300 134.665 C 374.516 134.981,374.715 135.600,375.600 135.600 C 376.044 135.600,376.400 135.333,376.400 135.000 C 376.400 134.384,376.170 134.314,375.300 134.665 M299.300 141.798 C 298.611 142.581,298.593 154.433,299.280 155.120 C 299.647 155.487,308.809 155.600,338.080 155.600 L 376.400 155.600 376.400 154.557 C 376.400 153.700,376.275 153.575,375.700 153.857 C 374.578 154.407,300.805 154.502,300.146 153.955 C 299.737 153.616,299.600 152.223,299.600 148.400 C 299.600 144.577,299.737 143.184,300.146 142.845 C 300.805 142.298,374.578 142.393,375.700 142.943 C 376.275 143.225,376.400 143.100,376.400 142.243 L 376.400 141.200 338.100 141.215 C 305.533 141.228,299.725 141.315,299.300 141.798 M298.890 167.900 L 299.000 174.600 337.700 174.702 C 371.878 174.792,376.400 174.734,376.400 174.204 C 376.400 173.676,371.832 173.592,338.100 173.502 L 299.800 173.400 299.688 168.032 C 299.616 164.575,299.730 162.510,300.008 162.232 C 300.308 161.932,311.754 161.738,337.520 161.596 L 374.600 161.392 336.690 161.296 L 298.781 161.200 298.890 167.900 M374.900 161.700 C 375.152 162.457,376.400 162.564,376.400 161.829 C 376.400 161.458,376.058 161.200,375.567 161.200 C 375.078 161.200,374.802 161.407,374.900 161.700 M338.200 224.000 C 338.057 224.231,338.428 224.397,339.076 224.394 C 339.949 224.389,340.066 224.301,339.600 224.000 C 338.831 223.503,338.507 223.503,338.200 224.000 M332.400 224.753 C 332.400 225.253,333.733 225.540,334.960 225.306 C 336.642 224.984,336.152 224.400,334.200 224.400 C 333.210 224.400,332.400 224.559,332.400 224.753 M342.400 224.757 C 342.400 225.237,344.183 225.658,344.958 225.361 C 345.300 225.230,345.859 225.402,346.201 225.744 C 346.543 226.086,347.083 226.266,347.401 226.144 C 347.719 226.022,348.269 226.211,348.622 226.565 C 348.975 226.918,349.430 227.105,349.632 226.980 C 350.281 226.579,350.025 226.000,349.200 226.000 C 348.760 226.000,348.400 225.820,348.400 225.600 C 348.400 225.380,347.871 225.200,347.224 225.200 C 346.577 225.200,345.936 225.020,345.800 224.800 C 345.494 224.305,342.400 224.265,342.400 224.757 M330.000 225.600 C 330.000 225.820,330.450 226.000,331.000 226.000 C 331.550 226.000,332.000 225.820,332.000 225.600 C 332.000 225.380,331.550 225.200,331.000 225.200 C 330.450 225.200,330.000 225.380,330.000 225.600 M328.400 226.400 C 328.400 226.620,328.670 226.800,329.000 226.800 C 329.330 226.800,329.600 226.620,329.600 226.400 C 329.600 226.180,329.330 226.000,329.000 226.000 C 328.670 226.000,328.400 226.180,328.400 226.400 M326.800 227.200 C 326.800 227.420,327.070 227.600,327.400 227.600 C 327.730 227.600,328.000 227.420,328.000 227.200 C 328.000 226.980,327.730 226.800,327.400 226.800 C 327.070 226.800,326.800 226.980,326.800 227.200 M350.000 227.151 C 350.000 227.345,350.585 227.742,351.300 228.033 C 354.693 229.417,360.174 236.203,362.419 241.800 C 363.402 244.252,363.992 252.968,363.227 253.733 C 362.992 253.968,362.800 254.666,362.800 255.285 C 362.800 255.904,362.643 256.723,362.450 257.105 C 362.258 257.487,361.691 258.610,361.190 259.600 C 359.712 262.520,356.901 266.275,355.136 267.686 C 354.232 268.409,353.059 269.405,352.528 269.900 C 351.998 270.395,351.302 270.800,350.982 270.800 C 350.662 270.800,350.400 270.980,350.400 271.200 C 350.400 271.420,350.040 271.600,349.600 271.600 C 349.160 271.600,348.800 271.780,348.800 272.000 C 348.800 272.220,349.053 272.400,349.362 272.400 C 350.119 272.400,353.200 270.735,353.200 270.326 C 353.200 270.147,353.461 270.000,353.781 270.000 C 354.100 270.000,355.720 268.641,357.381 266.981 C 359.041 265.320,360.400 263.700,360.400 263.381 C 360.400 263.061,360.580 262.800,360.800 262.800 C 361.020 262.800,361.200 262.440,361.200 262.000 C 361.200 261.560,361.336 261.200,361.502 261.200 C 361.669 261.200,362.040 260.615,362.329 259.900 C 362.617 259.185,363.021 258.287,363.226 257.905 C 363.432 257.523,363.600 256.769,363.600 256.229 C 363.600 255.689,363.780 255.136,364.000 255.000 C 364.236 254.854,364.400 252.470,364.400 249.200 C 364.400 245.930,364.236 243.546,364.000 243.400 C 363.780 243.264,363.600 242.634,363.600 242.000 C 363.600 241.366,363.420 240.736,363.200 240.600 C 362.980 240.464,362.800 240.003,362.800 239.576 C 362.800 239.149,362.620 238.800,362.400 238.800 C 362.180 238.800,362.000 238.440,362.000 238.000 C 362.000 237.560,361.820 237.200,361.600 237.200 C 361.380 237.200,361.200 236.880,361.200 236.488 C 361.200 236.097,360.840 235.517,360.400 235.200 C 359.960 234.883,359.600 234.389,359.600 234.103 C 359.600 233.425,355.375 229.200,354.697 229.200 C 354.411 229.200,353.917 228.840,353.600 228.400 C 353.283 227.960,352.703 227.600,352.312 227.600 C 351.920 227.600,351.600 227.420,351.600 227.200 C 351.600 226.980,351.240 226.800,350.800 226.800 C 350.360 226.800,350.000 226.958,350.000 227.151 M325.200 227.932 C 325.200 228.115,324.708 228.520,324.106 228.832 C 320.874 230.509,314.800 238.593,314.800 241.217 C 314.800 241.622,314.620 242.064,314.400 242.200 C 314.180 242.336,314.000 243.686,314.000 245.200 C 314.000 246.714,313.820 248.064,313.600 248.200 C 313.380 248.336,313.200 248.876,313.200 249.400 C 313.200 249.924,313.380 250.464,313.600 250.600 C 313.820 250.736,314.000 251.996,314.000 253.400 C 314.000 254.804,314.180 256.064,314.400 256.200 C 314.620 256.336,314.800 256.876,314.800 257.400 C 314.800 257.924,314.980 258.464,315.200 258.600 C 315.420 258.736,315.600 259.197,315.600 259.624 C 315.600 260.051,315.780 260.400,316.000 260.400 C 316.220 260.400,316.400 260.760,316.400 261.200 C 316.400 261.640,316.580 262.000,316.800 262.000 C 317.020 262.000,317.200 262.274,317.200 262.609 C 317.200 263.309,323.676 270.000,324.353 270.000 C 325.182 270.000,324.810 269.468,321.855 266.429 C 314.345 258.706,312.643 247.550,317.520 238.013 C 319.183 234.761,323.627 229.556,325.300 228.900 C 326.474 228.441,326.797 227.600,325.800 227.600 C 325.470 227.600,325.200 227.750,325.200 227.932 M335.600 234.400 C 335.600 234.635,337.000 234.800,339.000 234.800 C 341.000 234.800,342.400 234.635,342.400 234.400 C 342.400 234.165,341.000 234.000,339.000 234.000 C 337.000 234.000,335.600 234.165,335.600 234.400 M333.200 235.200 C 333.200 235.420,332.874 235.600,332.475 235.600 C 332.077 235.600,331.402 235.916,330.975 236.303 C 330.549 236.689,329.721 237.218,329.137 237.478 C 325.421 239.126,322.456 248.284,324.033 253.240 C 325.298 257.217,328.879 262.000,330.591 262.000 C 330.926 262.000,331.200 262.180,331.200 262.400 C 331.200 262.620,331.470 262.800,331.800 262.800 C 332.130 262.800,332.400 262.697,332.400 262.571 C 332.400 262.160,331.268 261.200,330.783 261.200 C 330.164 261.200,327.600 258.398,327.600 257.722 C 327.600 257.435,327.465 257.199,327.300 257.197 C 326.941 257.193,326.000 255.256,326.000 254.520 C 326.000 254.234,325.820 254.000,325.600 254.000 C 325.380 254.000,325.200 253.381,325.200 252.624 C 325.200 251.867,325.020 251.136,324.800 251.000 C 324.580 250.864,324.400 250.144,324.400 249.400 C 324.400 248.656,324.580 247.936,324.800 247.800 C 325.020 247.664,325.200 246.843,325.200 245.976 C 325.200 245.109,325.380 244.400,325.600 244.400 C 325.820 244.400,326.000 244.040,326.000 243.600 C 326.000 243.160,326.180 242.800,326.400 242.800 C 326.620 242.800,326.800 242.528,326.800 242.197 C 326.800 240.952,331.359 236.400,332.605 236.400 C 332.932 236.400,333.200 236.220,333.200 236.000 C 333.200 235.780,333.560 235.600,334.000 235.600 C 334.440 235.600,334.800 235.420,334.800 235.200 C 334.800 234.980,334.440 234.800,334.000 234.800 C 333.560 234.800,333.200 234.980,333.200 235.200 M342.800 235.200 C 342.800 235.420,343.250 235.600,343.800 235.600 C 344.350 235.600,344.800 235.420,344.800 235.200 C 344.800 234.980,344.350 234.800,343.800 234.800 C 343.250 234.800,342.800 234.980,342.800 235.200 M345.200 235.932 C 345.200 236.115,345.692 236.520,346.294 236.832 C 347.806 237.617,351.600 241.449,351.600 242.191 C 351.600 242.526,351.780 242.800,352.000 242.800 C 352.220 242.800,352.400 243.239,352.400 243.776 C 352.400 244.313,352.580 244.864,352.800 245.000 C 353.020 245.136,353.200 245.946,353.200 246.800 C 353.200 248.634,353.865 249.276,354.236 247.800 C 354.831 245.428,351.958 239.656,349.160 237.601 C 346.769 235.845,345.200 235.184,345.200 235.932 M124.105 246.370 C 108.505 251.687,112.160 274.790,128.600 274.788 C 130.685 274.788,131.890 274.529,135.300 273.349 C 135.685 273.216,136.000 272.948,136.000 272.753 C 136.000 272.559,136.252 272.400,136.560 272.400 C 136.868 272.400,138.011 271.425,139.100 270.233 C 149.300 259.073,138.282 241.539,124.105 246.370 M132.400 247.200 C 132.400 247.420,132.816 247.600,133.325 247.600 C 133.833 247.600,134.636 247.960,135.108 248.400 C 135.580 248.840,136.175 249.200,136.429 249.200 C 137.039 249.200,139.600 252.009,139.600 252.678 C 139.600 252.965,139.780 253.200,140.000 253.200 C 140.220 253.200,140.400 253.560,140.400 254.000 C 140.400 254.440,140.580 254.800,140.800 254.800 C 141.020 254.800,141.200 255.239,141.200 255.776 C 141.200 256.313,141.380 256.864,141.600 257.000 C 141.820 257.136,142.000 258.677,142.000 260.424 C 142.000 262.275,141.833 263.600,141.600 263.600 C 141.380 263.600,141.200 264.140,141.200 264.800 C 141.200 265.460,141.020 266.000,140.800 266.000 C 140.580 266.000,140.400 266.282,140.400 266.626 C 140.400 267.886,135.244 272.400,133.805 272.400 C 133.472 272.400,133.200 272.580,133.200 272.800 C 133.200 273.020,132.581 273.200,131.824 273.200 C 131.067 273.200,130.336 273.380,130.200 273.600 C 130.064 273.820,129.344 274.000,128.600 274.000 C 127.856 274.000,127.136 273.820,127.000 273.600 C 126.864 273.380,126.043 273.200,125.176 273.200 C 124.309 273.200,123.600 273.020,123.600 272.800 C 123.600 272.580,123.240 272.400,122.800 272.400 C 122.360 272.400,122.000 272.250,122.000 272.068 C 122.000 271.885,121.505 271.480,120.900 271.168 C 119.501 270.446,118.354 269.299,117.632 267.900 C 117.320 267.295,116.915 266.800,116.732 266.800 C 116.550 266.800,116.400 266.440,116.400 266.000 C 116.400 265.560,116.220 265.200,116.000 265.200 C 115.780 265.200,115.600 264.671,115.600 264.024 C 115.600 263.377,115.420 262.736,115.200 262.600 C 114.980 262.464,114.800 261.373,114.800 260.176 C 114.800 258.979,114.980 258.000,115.200 258.000 C 115.420 258.000,115.600 257.460,115.600 256.800 C 115.600 256.140,115.780 255.600,116.000 255.600 C 116.220 255.600,116.400 255.240,116.400 254.800 C 116.400 254.360,116.580 254.000,116.800 254.000 C 117.020 254.000,117.200 253.726,117.200 253.391 C 117.200 252.599,121.399 248.400,122.191 248.400 C 122.526 248.400,122.800 248.220,122.800 248.000 C 122.800 247.780,123.239 247.600,123.776 247.600 C 124.313 247.600,124.864 247.420,125.000 247.200 C 125.136 246.980,126.857 246.800,128.824 246.800 C 130.941 246.800,132.400 246.963,132.400 247.200 M126.000 250.400 C 126.000 250.620,125.538 250.800,124.974 250.800 C 123.816 250.800,119.600 254.702,119.600 255.774 C 119.600 256.118,119.420 256.400,119.200 256.400 C 118.963 256.400,118.800 257.867,118.800 260.000 C 118.800 262.133,118.963 263.600,119.200 263.600 C 119.420 263.600,119.600 263.872,119.600 264.205 C 119.600 265.542,121.905 268.400,122.982 268.400 C 123.322 268.400,123.600 268.580,123.600 268.800 C 123.600 269.020,123.870 269.200,124.200 269.200 C 125.180 269.200,124.866 268.667,123.215 267.525 C 116.269 262.724,120.300 251.200,128.924 251.200 C 131.936 251.200,137.200 254.373,137.200 256.188 C 137.200 256.525,137.380 256.800,137.600 256.800 C 137.820 256.800,138.000 256.618,138.000 256.395 C 138.000 254.947,133.950 250.800,132.536 250.800 C 132.021 250.800,131.600 250.620,131.600 250.400 C 131.600 250.171,130.400 250.000,128.800 250.000 C 127.200 250.000,126.000 250.171,126.000 250.400 M353.200 252.000 C 353.200 253.100,353.020 254.000,352.800 254.000 C 352.580 254.000,352.400 254.360,352.400 254.800 C 352.400 255.240,352.220 255.600,352.000 255.600 C 351.780 255.600,351.600 255.873,351.600 256.207 C 351.600 256.541,350.433 257.981,349.007 259.407 C 347.581 260.833,346.141 262.000,345.807 262.000 C 345.473 262.000,345.200 262.180,345.200 262.400 C 345.200 262.620,344.840 262.800,344.400 262.800 C 343.960 262.800,343.600 262.980,343.600 263.200 C 343.600 264.336,347.010 262.773,349.702 260.403 C 352.555 257.891,354.938 252.666,354.157 250.633 C 353.673 249.370,353.200 250.045,353.200 252.000 M137.940 258.100 C 137.907 258.595,137.905 260.035,137.936 261.300 C 137.967 262.565,137.858 263.600,137.694 263.600 C 137.530 263.600,137.144 264.167,136.837 264.860 C 136.268 266.148,135.039 267.593,134.500 267.609 C 134.335 267.614,133.750 267.970,133.200 268.400 C 132.384 269.039,131.557 269.184,128.700 269.191 C 126.639 269.196,125.200 269.364,125.200 269.600 C 125.200 269.837,126.667 270.000,128.800 270.000 C 130.933 270.000,132.400 269.837,132.400 269.600 C 132.400 269.380,132.760 269.200,133.200 269.200 C 133.640 269.200,134.000 269.064,134.000 268.898 C 134.000 268.731,134.540 268.356,135.200 268.064 C 135.860 267.772,136.400 267.312,136.400 267.042 C 136.400 266.772,136.760 266.164,137.200 265.692 C 137.640 265.220,138.000 264.567,138.000 264.240 C 138.000 263.914,138.180 263.536,138.400 263.400 C 138.620 263.264,138.800 261.813,138.800 260.176 C 138.800 257.499,138.094 255.794,137.940 258.100 M332.800 263.200 C 332.800 263.420,333.250 263.600,333.800 263.600 C 334.350 263.600,334.800 263.420,334.800 263.200 C 334.800 262.980,334.350 262.800,333.800 262.800 C 333.250 262.800,332.800 262.980,332.800 263.200 M335.200 264.000 C 335.200 264.220,336.021 264.400,337.024 264.400 C 338.137 264.400,338.751 264.244,338.600 264.000 C 338.464 263.780,337.643 263.600,336.776 263.600 C 335.909 263.600,335.200 263.780,335.200 264.000 M339.600 264.000 C 339.600 264.220,340.410 264.400,341.400 264.400 C 342.390 264.400,343.200 264.220,343.200 264.000 C 343.200 263.780,342.390 263.600,341.400 263.600 C 340.410 263.600,339.600 263.780,339.600 264.000 M0.255 269.492 C 0.438 272.043,1.719 274.490,4.060 276.760 C 5.957 278.600,7.276 279.600,7.807 279.600 C 8.133 279.600,8.400 279.780,8.400 280.000 C 8.400 280.220,8.760 280.400,9.200 280.400 C 9.640 280.400,10.000 280.580,10.000 280.800 C 10.000 281.020,10.439 281.200,10.976 281.200 C 11.513 281.200,12.064 281.380,12.200 281.600 C 12.362 281.863,27.640 282.001,56.724 282.003 L 101.000 282.005 101.106 284.176 C 101.164 285.369,101.029 286.459,100.806 286.597 C 100.583 286.734,100.400 288.178,100.400 289.804 C 100.400 291.430,100.110 293.805,99.755 295.080 C 99.400 296.356,99.020 297.895,98.910 298.500 C 98.799 299.105,98.550 299.600,98.355 299.600 C 98.160 299.600,98.000 299.834,98.000 300.120 C 98.000 300.856,97.059 302.793,96.700 302.797 C 96.535 302.799,96.400 303.072,96.400 303.404 C 96.400 303.736,95.860 304.572,95.200 305.263 C 94.540 305.954,94.000 306.680,94.000 306.878 C 94.000 307.432,92.102 309.200,91.506 309.200 C 91.215 309.200,90.717 309.560,90.400 310.000 C 90.083 310.440,89.638 310.804,89.412 310.809 C 89.185 310.814,88.550 311.170,88.000 311.600 C 87.450 312.030,86.595 312.386,86.100 312.391 C 85.605 312.396,85.200 312.580,85.200 312.800 C 85.200 313.020,84.660 313.200,84.000 313.200 C 83.340 313.200,82.800 313.380,82.800 313.600 C 82.800 313.833,81.425 314.005,79.500 314.013 C 74.528 314.032,74.799 313.453,74.803 324.044 C 74.806 332.935,74.813 333.003,75.703 333.400 C 76.284 333.659,84.269 333.726,98.400 333.590 L 120.200 333.380 98.644 333.290 C 78.646 333.207,77.050 333.149,76.557 332.500 C 76.158 331.974,76.022 329.839,76.013 323.927 C 75.998 314.940,75.517 315.912,80.349 315.174 C 87.327 314.108,93.226 310.710,95.680 306.343 C 96.157 305.494,96.694 304.800,96.874 304.800 C 97.053 304.800,97.200 304.440,97.200 304.000 C 97.200 303.560,97.380 303.200,97.600 303.200 C 97.820 303.200,98.000 302.840,98.000 302.400 C 98.000 301.960,98.180 301.600,98.400 301.600 C 98.620 301.600,98.800 301.150,98.800 300.600 C 98.800 300.050,98.980 299.600,99.200 299.600 C 99.420 299.600,99.600 299.060,99.600 298.400 C 99.600 297.740,99.780 297.200,100.000 297.200 C 100.220 297.200,100.400 296.491,100.400 295.624 C 100.400 294.757,100.580 293.936,100.800 293.800 C 101.020 293.664,101.200 292.123,101.200 290.376 C 101.200 288.525,101.367 287.200,101.600 287.200 C 101.822 287.200,101.994 286.175,101.987 284.900 C 101.965 280.792,106.780 281.200,58.310 281.200 C 13.930 281.200,13.243 281.175,9.402 279.418 C 7.178 278.401,2.000 273.578,2.000 272.523 C 2.000 272.236,1.820 272.000,1.600 272.000 C 1.380 272.000,1.200 271.550,1.200 271.000 C 1.200 270.450,1.031 270.000,0.824 270.000 C 0.617 270.000,0.371 269.415,0.276 268.700 C 0.182 267.985,0.172 268.342,0.255 269.492 M325.200 270.229 C 325.200 270.698,326.365 271.600,326.971 271.600 C 327.317 271.600,327.600 271.780,327.600 272.000 C 327.600 272.220,327.949 272.400,328.376 272.400 C 328.803 272.400,329.264 272.580,329.400 272.800 C 329.536 273.020,330.087 273.200,330.624 273.200 C 331.161 273.200,331.600 273.380,331.600 273.600 C 331.600 273.820,332.320 274.000,333.200 274.000 C 334.080 274.000,334.800 273.820,334.800 273.600 C 334.800 273.179,334.002 273.024,332.500 273.153 C 332.005 273.195,331.600 273.043,331.600 272.815 C 331.600 272.587,331.257 272.400,330.838 272.400 C 330.022 272.400,326.688 270.799,326.467 270.300 C 326.312 269.952,325.200 269.889,325.200 270.229 M346.800 272.800 C 346.800 273.020,347.160 273.200,347.600 273.200 C 348.040 273.200,348.400 273.020,348.400 272.800 C 348.400 272.580,348.040 272.400,347.600 272.400 C 347.160 272.400,346.800 272.580,346.800 272.800 M344.300 273.103 C 343.150 273.359,343.508 274.000,344.800 274.000 C 345.460 274.000,346.000 273.839,346.000 273.643 C 346.000 273.172,345.173 272.909,344.300 273.103 M336.892 273.890 C 336.173 273.979,335.689 274.220,335.816 274.426 C 336.108 274.898,342.000 274.923,342.000 274.452 C 342.000 274.124,339.464 273.540,338.600 273.668 C 338.380 273.701,337.612 273.801,336.892 273.890 M179.085 317.048 C 178.911 317.222,178.782 320.522,178.796 324.382 C 178.811 328.242,178.707 331.805,178.565 332.300 L 178.307 333.200 154.687 333.200 C 141.696 333.200,131.151 333.285,131.255 333.388 C 131.609 333.742,178.909 333.651,179.264 333.296 C 179.458 333.102,179.568 329.296,179.509 324.838 C 179.449 320.380,179.258 316.874,179.085 317.048 " stroke="none" fill="#6c6c6c" fill-rule="evenodd"></path><path id="path2" d="M310.500 54.300 C 325.405 54.358,349.795 54.358,364.700 54.300 C 379.605 54.242,367.410 54.194,337.600 54.194 C 307.790 54.194,295.595 54.242,310.500 54.300 M375.600 102.176 C 375.600 109.792,375.742 114.000,376.000 114.000 C 376.257 114.000,376.400 109.875,376.400 102.424 C 376.400 95.137,376.252 90.756,376.000 90.600 C 375.737 90.437,375.600 94.396,375.600 102.176 M254.596 185.600 C 254.596 229.270,254.643 247.135,254.700 225.300 C 254.757 203.465,254.757 167.735,254.700 145.900 C 254.643 124.065,254.596 141.930,254.596 185.600 M17.795 174.400 C 17.795 210.370,17.842 225.085,17.900 207.100 C 17.958 189.115,17.958 159.685,17.900 141.700 C 17.842 123.715,17.795 138.430,17.795 174.400 M318.900 115.100 C 329.185 115.159,346.015 115.159,356.300 115.100 C 366.585 115.040,358.170 114.992,337.600 114.992 C 317.030 114.992,308.615 115.040,318.900 115.100 M299.754 129.200 C 299.754 131.950,299.818 133.075,299.896 131.700 C 299.974 130.325,299.974 128.075,299.896 126.700 C 299.818 125.325,299.754 126.450,299.754 129.200 M318.500 134.700 C 328.785 134.759,345.615 134.759,355.900 134.700 C 366.185 134.640,357.770 134.592,337.200 134.592 C 316.630 134.592,308.215 134.640,318.500 134.700 M299.754 148.400 C 299.754 151.150,299.818 152.275,299.896 150.900 C 299.974 149.525,299.974 147.275,299.896 145.900 C 299.818 144.525,299.754 145.650,299.754 148.400 M318.700 162.300 C 329.095 162.359,346.105 162.359,356.500 162.300 C 366.895 162.241,358.390 162.192,337.600 162.192 C 316.810 162.192,308.305 162.241,318.700 162.300 M299.753 167.800 C 299.753 170.440,299.818 171.468,299.897 170.084 C 299.975 168.701,299.974 166.541,299.895 165.284 C 299.816 164.028,299.752 165.160,299.753 167.800 M37.931 281.100 C 49.662 281.159,68.742 281.159,80.331 281.100 C 91.919 281.041,82.320 280.993,59.000 280.993 C 35.680 280.993,26.199 281.041,37.931 281.100 M102.128 284.800 C 102.128 286.230,102.201 286.815,102.289 286.100 C 102.378 285.385,102.378 284.215,102.289 283.500 C 102.201 282.785,102.128 283.370,102.128 284.800 M76.167 324.000 C 76.167 328.290,76.226 330.045,76.298 327.900 C 76.370 325.755,76.370 322.245,76.298 320.100 C 76.226 317.955,76.167 319.710,76.167 324.000 M178.567 324.400 C 178.567 328.690,178.626 330.445,178.698 328.300 C 178.770 326.155,178.770 322.645,178.698 320.500 C 178.626 318.355,178.567 320.110,178.567 324.400 M77.000 332.800 C 77.342 333.353,177.858 333.353,178.200 332.800 C 178.364 332.534,161.396 332.400,127.600 332.400 C 93.804 332.400,76.836 332.534,77.000 332.800 M310.700 345.900 C 325.715 345.958,350.285 345.958,365.300 345.900 C 380.315 345.842,368.030 345.794,338.000 345.794 C 307.970 345.794,295.685 345.842,310.700 345.900 " stroke="none" fill="#444444" fill-rule="evenodd"></path><path id="path3" d="M279.800 55.148 C 279.140 55.558,278.152 56.413,277.604 57.047 C 276.707 58.085,276.747 58.072,278.011 56.911 C 278.784 56.202,280.132 55.360,281.008 55.039 C 281.961 54.690,282.279 54.446,281.800 54.430 C 281.360 54.415,280.460 54.738,279.800 55.148 M393.800 54.800 C 394.996 55.314,395.995 55.314,395.200 54.800 C 394.870 54.587,394.240 54.422,393.800 54.434 L 393.000 54.456 393.800 54.800 M385.000 200.000 C 385.000 272.118,385.135 331.040,385.300 330.938 C 385.465 330.836,385.600 271.914,385.600 200.000 C 385.600 128.086,385.465 69.164,385.300 69.062 C 385.135 68.960,385.000 127.882,385.000 200.000 M299.782 90.102 C 299.675 90.381,299.636 96.007,299.694 102.604 L 299.800 114.600 337.600 114.600 L 375.400 114.600 375.400 102.200 L 375.400 89.800 337.688 89.698 C 307.558 89.616,299.937 89.698,299.782 90.102 M375.200 102.200 L 375.200 114.400 337.600 114.400 L 300.000 114.400 300.000 102.200 L 300.000 90.000 337.600 90.000 L 375.200 90.000 375.200 102.200 M12.617 90.772 C 12.480 90.994,13.316 91.052,14.694 90.917 C 17.718 90.619,17.886 90.400,15.090 90.400 C 13.857 90.400,12.744 90.567,12.617 90.772 M238.033 90.544 C 238.125 90.624,239.280 90.805,240.600 90.947 C 242.243 91.124,242.811 91.080,242.400 90.809 C 241.861 90.452,237.632 90.196,238.033 90.544 M10.200 91.600 C 9.908 92.073,10.299 92.073,11.400 91.600 C 12.171 91.269,12.169 91.255,11.324 91.228 C 10.842 91.213,10.336 91.380,10.200 91.600 M7.029 93.409 C 6.605 93.729,6.338 94.071,6.435 94.169 C 6.532 94.266,7.059 94.002,7.606 93.582 C 8.153 93.161,8.420 92.820,8.200 92.822 C 7.980 92.824,7.453 93.088,7.029 93.409 M249.805 95.700 C 250.876 96.965,251.821 98.000,251.904 98.000 C 252.227 98.000,250.405 95.738,249.165 94.600 C 248.325 93.829,248.554 94.223,249.805 95.700 M18.100 107.865 C 17.825 107.976,17.600 108.356,17.600 108.710 C 17.600 109.281,17.656 109.277,18.100 108.673 C 18.569 108.037,25.444 108.001,127.662 108.097 C 187.646 108.154,236.640 108.065,236.538 107.900 C 236.335 107.572,18.913 107.537,18.100 107.865 M236.595 174.800 C 236.595 210.770,236.642 225.485,236.700 207.500 C 236.758 189.515,236.758 160.085,236.700 142.100 C 236.642 124.115,236.595 138.830,236.595 174.800 M300.200 123.600 C 300.036 123.866,312.596 124.000,337.576 124.000 L 375.200 124.000 375.200 128.920 C 375.200 132.317,375.045 133.998,374.700 134.351 C 374.295 134.765,374.408 134.768,375.300 134.366 L 376.400 133.872 376.400 129.300 C 376.400 122.454,381.350 123.229,337.524 123.213 C 313.223 123.205,300.362 123.338,300.200 123.600 M318.900 143.100 C 329.185 143.159,346.015 143.159,356.300 143.100 C 366.585 143.040,358.170 142.992,337.600 142.992 C 317.030 142.992,308.615 143.040,318.900 143.100 M375.200 148.400 C 375.200 152.836,375.286 153.542,375.800 153.345 C 376.286 153.158,376.400 152.222,376.400 148.400 C 376.400 144.578,376.286 143.642,375.800 143.455 C 375.286 143.258,375.200 143.964,375.200 148.400 M318.900 153.900 C 329.185 153.959,346.015 153.959,356.300 153.900 C 366.585 153.840,358.170 153.792,337.600 153.792 C 317.030 153.792,308.615 153.840,318.900 153.900 M375.000 167.700 L 375.000 173.000 337.500 173.000 C 316.875 173.000,300.000 173.135,300.000 173.300 C 300.000 174.127,374.999 173.628,375.711 172.795 C 376.502 171.872,376.778 162.519,376.000 163.000 C 375.780 163.136,375.600 163.057,375.600 162.824 C 375.600 162.591,375.465 162.400,375.300 162.400 C 375.135 162.399,375.000 164.784,375.000 167.700 M336.484 225.015 C 336.036 225.523,336.405 225.594,339.284 225.554 C 341.108 225.528,342.285 225.425,341.900 225.324 C 341.515 225.224,341.200 224.975,341.200 224.771 C 341.200 224.149,337.059 224.364,336.484 225.015 M332.400 226.021 C 331.970 226.314,332.254 226.354,333.400 226.162 C 335.384 225.830,335.704 225.598,334.167 225.606 C 333.525 225.609,332.730 225.796,332.400 226.021 M342.833 225.747 C 343.300 226.158,346.057 226.416,345.816 226.026 C 345.671 225.791,344.903 225.600,344.110 225.600 C 343.316 225.600,342.742 225.666,342.833 225.747 M329.253 227.053 C 328.513 227.376,327.991 227.724,328.094 227.827 C 328.197 227.930,329.073 227.655,330.040 227.216 C 331.008 226.777,331.530 226.428,331.200 226.441 C 330.870 226.455,329.994 226.730,329.253 227.053 M347.000 226.800 C 348.101 227.273,348.492 227.273,348.200 226.800 C 348.064 226.580,347.558 226.413,347.076 226.428 C 346.231 226.455,346.229 226.469,347.000 226.800 M325.585 229.219 L 324.200 230.438 325.900 229.366 C 326.835 228.776,327.600 228.228,327.600 228.147 C 327.600 227.718,326.817 228.134,325.585 229.219 M350.400 228.190 C 350.400 228.294,350.985 228.665,351.700 229.014 L 353.000 229.648 352.000 228.833 C 351.037 228.048,350.400 227.792,350.400 228.190 M355.600 232.200 C 357.017 233.630,358.267 234.800,358.377 234.800 C 358.487 234.800,357.417 233.630,356.000 232.200 C 354.583 230.770,353.333 229.600,353.223 229.600 C 353.113 229.600,354.183 230.770,355.600 232.200 M321.962 232.300 C 320.148 234.207,318.325 236.502,319.658 235.200 C 320.922 233.966,324.103 230.400,323.940 230.400 C 323.846 230.400,322.956 231.255,321.962 232.300 M318.214 237.035 C 317.841 237.604,317.627 238.161,317.739 238.272 C 317.850 238.383,318.229 237.918,318.581 237.237 C 319.359 235.733,319.144 235.615,318.214 237.035 M327.610 238.190 C 326.420 239.395,325.526 240.436,325.623 240.505 C 325.721 240.573,326.822 239.588,328.071 238.315 C 329.320 237.042,330.213 236.000,330.057 236.000 C 329.901 236.000,328.799 236.986,327.610 238.190 M348.000 236.287 C 348.000 236.474,348.548 236.951,349.218 237.347 C 349.888 237.743,351.083 239.042,351.875 240.233 C 353.449 242.604,353.959 243.054,353.025 241.248 C 351.902 239.077,348.000 235.224,348.000 236.287 M315.400 244.400 C 315.250 244.873,315.217 245.350,315.327 245.460 C 315.437 245.570,315.650 245.273,315.800 244.800 C 315.950 244.327,315.983 243.850,315.873 243.740 C 315.763 243.630,315.550 243.927,315.400 244.400 M362.414 244.654 C 362.406 244.904,362.669 245.624,362.998 246.254 C 363.326 246.884,363.590 247.130,363.583 246.800 C 363.569 246.083,362.435 244.000,362.414 244.654 M126.200 245.176 C 125.700 245.377,126.598 245.497,128.600 245.497 C 130.602 245.497,131.500 245.377,131.000 245.176 C 130.560 245.000,129.480 244.856,128.600 244.856 C 127.720 244.856,126.640 245.000,126.200 245.176 M354.600 249.175 C 354.600 251.346,354.732 252.914,354.894 252.661 C 355.259 252.088,355.242 246.847,354.872 245.914 C 354.722 245.537,354.600 247.005,354.600 249.175 M118.539 249.034 L 116.600 250.868 118.700 249.171 C 119.855 248.238,120.800 247.413,120.800 247.337 C 120.800 246.985,120.338 247.332,118.539 249.034 M138.801 249.396 C 139.570 250.273,140.245 251.068,140.300 251.162 C 140.355 251.256,140.487 251.247,140.593 251.141 C 140.699 251.035,140.024 250.240,139.093 249.374 L 137.401 247.800 138.801 249.396 M115.673 252.200 C 115.422 252.750,115.283 253.200,115.363 253.200 C 115.443 253.200,115.803 252.750,116.163 252.200 C 116.524 251.650,116.663 251.200,116.473 251.200 C 116.284 251.200,115.923 251.650,115.673 252.200 M127.200 251.583 C 126.507 251.793,126.998 251.889,128.800 251.893 C 130.615 251.897,131.098 251.806,130.400 251.590 C 129.146 251.201,128.464 251.200,127.200 251.583 M363.246 251.820 C 363.221 252.271,362.987 252.853,362.727 253.113 C 362.466 253.374,362.362 253.695,362.494 253.828 C 362.870 254.203,363.672 252.439,363.472 251.679 C 363.331 251.146,363.283 251.176,363.246 251.820 M122.763 253.700 C 122.192 254.195,121.495 255.050,121.214 255.600 C 120.932 256.150,120.860 256.420,121.052 256.200 C 121.245 255.980,122.022 255.125,122.780 254.300 C 124.327 252.615,124.320 252.350,122.763 253.700 M134.799 254.217 C 135.568 255.088,136.333 255.971,136.499 256.180 C 136.689 256.420,136.800 256.420,136.800 256.180 C 136.799 255.722,135.309 254.024,134.200 253.217 C 133.760 252.897,134.030 253.347,134.799 254.217 M113.829 256.229 C 113.681 256.815,113.638 257.372,113.732 257.466 C 113.827 257.560,114.024 257.158,114.171 256.571 C 114.319 255.985,114.362 255.428,114.268 255.334 C 114.173 255.240,113.976 255.642,113.829 256.229 M137.000 260.200 C 137.000 262.028,137.135 263.440,137.300 263.338 C 137.465 263.236,137.600 261.824,137.600 260.200 C 137.600 258.576,137.465 257.164,137.300 257.062 C 137.135 256.960,137.000 258.372,137.000 260.200 M120.249 257.815 C 120.112 258.173,120.018 258.856,120.041 259.333 C 120.067 259.881,120.203 259.686,120.410 258.803 C 120.760 257.316,120.665 256.733,120.249 257.815 M143.400 260.200 C 143.400 261.588,143.532 262.516,143.694 262.262 C 143.856 262.008,143.988 261.080,143.988 260.200 C 143.988 259.320,143.856 258.392,143.694 258.138 C 143.532 257.884,143.400 258.812,143.400 260.200 M349.861 260.616 C 348.795 261.597,348.083 262.400,348.278 262.400 C 348.473 262.400,349.428 261.590,350.400 260.600 C 352.658 258.300,352.369 258.308,349.861 260.616 M120.006 261.233 C 120.009 261.765,120.189 262.470,120.406 262.800 C 120.682 263.222,120.723 262.985,120.542 262.000 C 120.225 260.275,119.998 259.949,120.006 261.233 M318.974 262.600 C 319.596 263.860,322.000 266.726,322.000 266.207 C 322.000 266.041,321.505 265.338,320.900 264.643 C 320.295 263.949,319.481 262.935,319.091 262.391 L 318.382 261.400 318.974 262.600 M113.628 263.476 C 113.613 263.958,113.780 264.464,114.000 264.600 C 114.473 264.892,114.473 264.501,114.000 263.400 C 113.669 262.629,113.655 262.631,113.628 263.476 M355.600 266.313 C 353.139 268.828,352.765 269.323,354.244 268.104 C 355.919 266.724,359.588 262.751,359.127 262.818 C 359.057 262.828,357.470 264.401,355.600 266.313 M134.800 266.262 C 133.529 267.572,133.326 267.908,134.110 267.406 C 135.034 266.814,137.144 264.393,136.727 264.403 C 136.657 264.405,135.790 265.241,134.800 266.262 M115.200 267.384 C 115.200 267.710,116.743 269.978,117.388 270.600 C 118.665 271.831,119.217 271.960,118.167 270.783 C 117.489 270.022,116.544 268.881,116.067 268.246 C 115.590 267.611,115.200 267.224,115.200 267.384 M323.200 267.386 C 323.200 267.565,323.515 267.960,323.900 268.263 C 324.736 268.921,326.373 269.851,325.800 269.343 C 323.718 267.496,323.200 267.106,323.200 267.386 M138.723 271.009 C 137.691 271.994,136.979 272.800,137.140 272.800 C 137.301 272.800,138.228 271.990,139.200 271.000 C 141.477 268.680,141.158 268.686,138.723 271.009 M329.400 271.600 C 329.536 271.820,330.042 271.987,330.524 271.972 C 331.369 271.945,331.371 271.931,330.600 271.600 C 329.499 271.127,329.108 271.127,329.400 271.600 M120.289 272.830 C 120.778 273.339,121.278 273.655,121.401 273.532 C 121.524 273.409,121.124 272.992,120.512 272.606 L 119.400 271.904 120.289 272.830 M331.790 272.384 C 331.932 272.613,332.517 272.800,333.090 272.800 C 334.344 272.800,334.199 272.608,332.666 272.240 C 331.923 272.062,331.621 272.111,331.790 272.384 M344.800 272.369 C 343.832 272.649,343.841 272.665,345.100 272.860 C 346.015 273.002,346.400 272.904,346.400 272.531 C 346.400 271.952,346.284 271.940,344.800 272.369 M2.422 272.600 C 2.427 273.129,3.542 274.591,3.769 274.365 C 3.866 274.268,3.602 273.741,3.182 273.194 C 2.761 272.647,2.420 272.380,2.422 272.600 M335.055 273.400 C 335.143 273.628,336.842 273.800,339.000 273.800 C 341.159 273.800,342.857 273.628,342.944 273.400 C 343.040 273.149,341.567 273.000,339.000 273.000 C 336.432 273.000,334.959 273.149,335.055 273.400 M249.827 275.505 C 248.646 276.878,248.380 277.318,249.163 276.600 C 250.350 275.513,252.239 273.193,251.927 273.205 C 251.857 273.208,250.912 274.243,249.827 275.505 M246.300 278.229 C 245.695 278.557,245.200 278.910,245.200 279.013 C 245.200 279.399,245.832 279.157,246.800 278.400 C 247.989 277.470,247.811 277.409,246.300 278.229 M13.000 280.400 C 13.440 280.589,14.160 280.738,14.600 280.732 C 15.243 280.723,15.204 280.657,14.400 280.400 C 13.032 279.962,11.981 279.962,13.000 280.400 M240.400 280.400 L 239.400 280.720 240.400 280.754 C 240.950 280.773,241.670 280.613,242.000 280.400 C 242.764 279.906,241.942 279.906,240.400 280.400 M101.681 281.582 C 102.233 282.466,102.622 282.355,102.262 281.417 C 102.132 281.078,101.838 280.800,101.609 280.800 C 101.346 280.800,101.372 281.087,101.681 281.582 M152.531 286.200 C 152.533 287.740,152.605 288.321,152.692 287.491 C 152.779 286.661,152.777 285.401,152.689 284.691 C 152.600 283.981,152.529 284.660,152.531 286.200 M102.060 287.876 C 102.027 288.358,101.820 288.864,101.600 289.000 C 101.380 289.136,101.221 289.732,101.246 290.324 C 101.283 291.164,101.337 291.225,101.493 290.600 C 101.603 290.160,101.866 289.690,102.078 289.557 C 102.290 289.423,102.387 288.793,102.292 288.157 C 102.169 287.332,102.103 287.252,102.060 287.876 M152.834 293.400 C 152.822 293.840,152.987 294.470,153.200 294.800 C 153.714 295.595,153.714 294.596,153.200 293.400 L 152.856 292.600 152.834 293.400 M100.900 294.223 C 100.164 295.023,100.287 295.770,101.032 295.025 C 101.380 294.677,101.605 294.232,101.532 294.036 C 101.459 293.839,101.175 293.923,100.900 294.223 M156.360 303.800 C 157.034 305.105,157.588 305.828,157.585 305.400 C 157.583 305.180,157.214 304.550,156.764 304.000 C 156.221 303.336,156.085 303.269,156.360 303.800 M95.806 306.688 L 95.104 307.800 96.030 306.911 C 96.539 306.422,96.855 305.922,96.732 305.799 C 96.609 305.676,96.192 306.076,95.806 306.688 M157.600 306.125 C 157.600 306.194,158.185 306.779,158.900 307.425 L 160.200 308.600 159.025 307.300 C 157.930 306.088,157.600 305.816,157.600 306.125 M93.660 309.080 C 93.143 309.615,92.797 310.130,92.892 310.225 C 92.986 310.319,93.485 309.948,94.000 309.400 C 94.515 308.852,94.861 308.337,94.768 308.255 C 94.676 308.174,94.177 308.545,93.660 309.080 M161.200 309.725 C 161.200 309.794,161.785 310.379,162.500 311.025 L 163.800 312.200 162.625 310.900 C 161.530 309.688,161.200 309.416,161.200 309.725 M79.400 315.600 L 78.200 315.905 79.400 315.947 C 80.060 315.969,80.870 315.813,81.200 315.600 C 81.943 315.120,81.287 315.120,79.400 315.600 M173.600 315.588 C 173.930 315.808,174.815 315.991,175.567 315.994 C 177.360 316.002,177.041 315.775,174.800 315.450 C 173.542 315.267,173.181 315.309,173.600 315.588 M76.492 324.100 L 76.600 332.200 127.500 332.302 C 155.495 332.357,178.400 332.267,178.400 332.102 C 178.400 331.936,155.533 331.846,127.584 331.903 L 76.768 332.006 76.884 324.003 C 76.948 319.601,76.861 315.999,76.692 316.000 C 76.522 316.000,76.432 319.645,76.492 324.100 M277.801 343.136 C 279.140 344.627,280.793 345.614,281.880 345.572 C 282.276 345.556,281.883 345.281,281.008 344.961 C 280.132 344.640,278.782 343.798,278.009 343.089 L 276.602 341.800 277.801 343.136 M393.800 345.200 L 393.000 345.544 393.800 345.566 C 394.240 345.578,394.870 345.413,395.200 345.200 C 395.995 344.686,394.996 344.686,393.800 345.200 " stroke="none" fill="#333333" fill-rule="evenodd"></path><path id="path4" d="M275.798 199.800 C 275.798 277.020,275.844 308.550,275.900 269.868 C 275.956 231.185,275.956 168.005,275.900 129.468 C 275.844 90.930,275.798 122.580,275.798 199.800 M314.269 69.100 C 327.067 69.158,348.127 69.159,361.069 69.100 C 374.011 69.041,363.540 68.993,337.800 68.993 C 312.060 68.993,301.471 69.041,314.269 69.100 M290.598 200.000 C 290.598 271.830,290.644 301.215,290.700 265.300 C 290.756 229.385,290.756 170.615,290.700 134.700 C 290.644 98.785,290.598 128.170,290.598 200.000 M384.998 200.000 C 384.998 271.830,385.044 301.215,385.100 265.300 C 385.156 229.385,385.156 170.615,385.100 134.700 C 385.044 98.785,384.998 128.170,384.998 200.000 M318.900 89.500 C 329.185 89.559,346.015 89.559,356.300 89.500 C 366.585 89.440,358.170 89.392,337.600 89.392 C 317.030 89.392,308.615 89.440,318.900 89.500 M71.500 90.300 C 102.355 90.357,152.845 90.357,183.700 90.300 C 214.555 90.243,189.310 90.197,127.600 90.197 C 65.890 90.197,40.645 90.243,71.500 90.300 M254.501 105.000 C 254.505 105.880,254.587 106.193,254.683 105.695 C 254.779 105.198,254.775 104.478,254.675 104.095 C 254.575 103.713,254.496 104.120,254.501 105.000 M318.900 142.700 C 329.185 142.759,346.015 142.759,356.300 142.700 C 366.585 142.640,358.170 142.592,337.600 142.592 C 317.030 142.592,308.615 142.640,318.900 142.700 M318.900 154.300 C 329.185 154.359,346.015 154.359,356.300 154.300 C 366.585 154.240,358.170 154.192,337.600 154.192 C 317.030 154.192,308.615 154.240,318.900 154.300 M337.600 161.600 L 300.600 161.806 337.700 161.903 C 362.231 161.967,374.800 161.864,374.800 161.600 C 374.800 161.380,374.755 161.244,374.700 161.297 C 374.645 161.350,357.950 161.487,337.600 161.600 M332.000 225.533 C 332.000 225.790,331.460 226.000,330.800 226.000 C 330.140 226.000,329.600 226.167,329.600 226.371 C 329.600 226.575,329.285 226.824,328.900 226.924 C 328.269 227.089,328.267 227.112,328.876 227.154 C 329.248 227.179,329.664 227.020,329.800 226.800 C 329.936 226.580,330.476 226.400,331.000 226.400 C 331.957 226.400,332.688 225.755,332.240 225.307 C 332.108 225.175,332.000 225.277,332.000 225.533 M347.824 226.587 C 348.842 227.358,349.424 227.367,348.657 226.600 C 348.327 226.270,347.830 226.000,347.552 226.000 C 347.269 226.000,347.388 226.258,347.824 226.587 M326.234 228.257 C 326.045 228.748,326.110 228.812,326.491 228.510 C 326.771 228.289,327.270 228.007,327.600 227.885 C 328.010 227.734,327.928 227.653,327.343 227.632 C 326.871 227.614,326.372 227.895,326.234 228.257 M324.734 229.069 C 324.368 229.166,323.968 229.506,323.846 229.824 C 323.666 230.295,323.809 230.282,324.612 229.755 C 325.388 229.247,326.011 228.609,325.500 228.846 C 325.445 228.872,325.100 228.972,324.734 229.069 M336.500 233.876 C 336.885 233.976,337.515 233.976,337.900 233.876 C 338.285 233.775,337.970 233.693,337.200 233.693 C 336.430 233.693,336.115 233.775,336.500 233.876 M344.543 235.000 C 344.873 235.330,345.370 235.600,345.648 235.600 C 345.931 235.600,345.812 235.342,345.376 235.013 C 344.358 234.242,343.776 234.233,344.543 235.000 M127.600 240.400 L 18.600 240.602 127.476 240.701 C 199.736 240.767,236.436 240.665,236.600 240.400 C 236.736 240.180,236.792 240.045,236.724 240.099 C 236.656 240.153,187.550 240.289,127.600 240.400 M314.901 247.000 C 314.905 247.880,314.987 248.193,315.083 247.695 C 315.179 247.198,315.175 246.478,315.075 246.095 C 314.975 245.713,314.896 246.120,314.901 247.000 M323.331 249.400 C 323.333 250.940,323.405 251.521,323.492 250.691 C 323.579 249.861,323.577 248.601,323.489 247.891 C 323.400 247.181,323.329 247.860,323.331 249.400 M354.000 249.400 C 354.000 250.263,354.161 250.747,354.400 250.600 C 354.620 250.464,354.800 249.924,354.800 249.400 C 354.800 248.876,354.620 248.336,354.400 248.200 C 354.161 248.053,354.000 248.537,354.000 249.400 M363.301 249.400 C 363.305 250.280,363.387 250.593,363.483 250.095 C 363.579 249.598,363.575 248.878,363.475 248.495 C 363.375 248.113,363.296 248.520,363.301 249.400 M314.909 251.600 C 314.909 252.590,314.987 252.995,315.082 252.500 C 315.178 252.005,315.178 251.195,315.082 250.700 C 314.987 250.205,314.909 250.610,314.909 251.600 M362.368 255.700 C 362.249 256.560,362.310 257.050,362.512 256.848 C 362.705 256.655,362.798 255.981,362.719 255.349 C 362.587 254.291,362.559 254.319,362.368 255.700 M136.675 256.030 C 136.996 256.674,137.470 257.186,137.729 257.168 C 138.059 257.146,138.050 257.077,137.700 256.935 C 137.425 256.824,137.200 256.408,137.200 256.009 C 137.200 255.611,136.951 255.190,136.646 255.073 C 136.185 254.896,136.190 255.057,136.675 256.030 M113.701 260.200 C 113.705 261.080,113.787 261.393,113.883 260.895 C 113.979 260.398,113.975 259.678,113.875 259.295 C 113.775 258.913,113.696 259.320,113.701 260.200 M345.400 263.200 C 344.520 263.625,343.997 263.979,344.239 263.986 C 344.742 264.002,347.200 262.827,347.200 262.571 C 347.200 262.332,347.187 262.337,345.400 263.200 M334.901 264.000 C 334.990 264.330,335.499 264.633,336.031 264.674 C 336.795 264.732,336.831 264.701,336.200 264.528 C 335.760 264.407,335.251 264.103,335.070 263.854 C 334.851 263.554,334.794 263.604,334.901 264.000 M135.046 266.463 C 133.971 267.569,133.506 268.233,134.012 267.937 C 135.166 267.263,136.056 266.381,136.703 265.266 C 137.392 264.082,137.282 264.161,135.046 266.463 M254.501 266.200 C 254.505 267.080,254.587 267.393,254.683 266.895 C 254.779 266.398,254.775 265.678,254.675 265.295 C 254.575 264.913,254.496 265.320,254.501 266.200 M121.200 265.464 C 121.200 265.682,121.695 266.297,122.300 266.830 L 123.400 267.800 122.400 266.600 C 121.850 265.940,121.355 265.325,121.300 265.233 C 121.245 265.142,121.200 265.245,121.200 265.464 M139.022 270.375 L 137.444 272.200 139.203 270.514 C 140.170 269.586,140.880 268.765,140.780 268.688 C 140.681 268.612,139.890 269.371,139.022 270.375 M116.800 269.325 C 116.800 269.394,117.385 269.979,118.100 270.625 L 119.400 271.800 118.225 270.500 C 117.130 269.288,116.800 269.016,116.800 269.325 M327.200 270.924 C 328.528 271.613,329.600 272.012,329.600 271.817 C 329.600 271.576,327.137 270.400,326.639 270.402 C 326.397 270.404,326.650 270.638,327.200 270.924 M127.091 275.089 C 127.801 275.177,129.061 275.179,129.891 275.092 C 130.721 275.005,130.140 274.933,128.600 274.931 C 127.060 274.929,126.381 275.000,127.091 275.089 M175.269 281.100 C 187.077 281.159,206.517 281.159,218.469 281.100 C 230.421 281.041,220.760 280.993,197.000 280.993 C 173.240 280.993,163.461 281.041,175.269 281.100 M152.954 281.777 C 152.832 282.094,152.803 282.679,152.889 283.077 C 152.987 283.528,153.124 283.312,153.254 282.500 C 153.471 281.138,153.330 280.796,152.954 281.777 M101.206 288.100 C 101.211 288.828,101.286 288.885,101.600 288.400 C 102.101 287.624,102.101 287.200,101.600 287.200 C 101.380 287.200,101.203 287.605,101.206 288.100 M152.914 290.600 C 152.917 291.700,152.995 292.103,153.087 291.495 C 153.179 290.886,153.177 289.986,153.082 289.495 C 152.987 289.003,152.911 289.500,152.914 290.600 M314.269 331.100 C 327.067 331.158,348.127 331.159,361.069 331.100 C 374.011 331.041,363.540 330.993,337.800 330.993 C 312.060 330.993,301.471 331.041,314.269 331.100 " stroke="none" fill="#4c4c4c" fill-rule="evenodd"></path></g></svg>